<?xml version="1.0" encoding="utf-8"?>
<!-- Generator: Adobe Illustrator 27.5.0, SVG Export Plug-In . SVG Version: 6.00 Build 0)  -->
<svg version="1.1" id="Contact_us_with_call_center_cartoon"
	 xmlns="http://www.w3.org/2000/svg" xmlns:xlink="http://www.w3.org/1999/xlink" x="0px" y="0px" viewBox="0 0 4000 3000"
	 style="enable-background:new 0 0 4000 3000;" xml:space="preserve">
<g id="Contact_us_with_call_center_cartoon_1_">
	<g id="cartoon_character">
		<g>
			<defs>
				<path id="backcolor" d="M3759.21,1620.032c-65.12,746.045-519.352,1177.514-1747.066,1177.514
					S213.727,2346.442,222.461,1655.312c9.101-720.102,226.219-1451.651,1703.943-1452.855
					C3844.645,200.894,3819.511,929.197,3759.21,1620.032z"/>
			</defs>
			<use xlink:href="#backcolor"  style="overflow:visible;fill:#0073E6;"/>
			<clipPath id="backcolor_00000012470627530773828770000006971785231484337079_">
				<use xlink:href="#backcolor"  style="overflow:visible;"/>
			</clipPath>
			<path style="clip-path:url(#backcolor_00000012470627530773828770000006971785231484337079_);fill:#2156AC;" d="M3523.595,586.99
				c242.637,270.248,221.003,633.273,190.17,986.504c-65.12,746.045-519.352,1177.514-1747.065,1177.514
				c-724.975,0-1220.824-157.314-1503.573-428.451c273.445,299.597,783.504,474.989,1549.017,474.989
				c1227.714,0,1681.945-431.469,1747.066-1177.514C3791.849,1246.098,3814.174,861.192,3523.595,586.99z"/>
			<g id="teacher_in_screen" style="clip-path:url(#backcolor_00000012470627530773828770000006971785231484337079_);">
				<g>
					<g>
						<g>
							<path style="fill:#7D4C29;" d="M3022.358,2347.89c3.386,51.439-10.145,104.253-40.584,147.157
								c-57.051,80.413-168.314,120.791-265.903,98.154c-44.926-10.421-87.881-34.195-112.431-71.727
								c-20.92-31.983-50.792-134.5,3.995-238.079c24.237-45.822,68.399-79.813,116.056-103.076
								c41.601-20.307,88.823-32.979,134.605-26.035c46.351,7.03,87.723,34.01,116.584,69.384
								C3003.508,2258.997,3019.398,2302.918,3022.358,2347.89z"/>
							<path style="fill:#7D4C29;" d="M2720.695,2189.491c107.288-129.175,332.249-33.918,322.989,123.776
								C3099.778,2132.682,2792.131,2024.621,2720.695,2189.491z"/>
							<path style="fill:#7D4C29;" d="M2604.004,2362.742c-50.385,39.88-61.071,114.668-31.697,170.966
								c64.696,119.478,229.312,121.039,324.467,42.614C2669.48,2682.524,2505.095,2502.2,2604.004,2362.742z"/>
							<path style="fill:#7D4C29;" d="M2574.778,2441.305c44.157,229.251,381.196,249.917,434.693,27.338
								C2912.534,2671.409,2645.924,2623.277,2574.778,2441.305z"/>
							<path style="fill:#7D4C29;" d="M2708.721,2198.15c162.09-143.089,347.762,37.916,321.398,206.967
								C3107.201,2172.314,2813.603,2033.322,2708.721,2198.15z"/>
							<path style="fill:#704425;" d="M2730.96,2194.404c34.142-10.195,70.081-7.955,101.447,3.748
								c31.521,11.528,57.678,33.435,76.046,60.308c4.586,6.733,8.7,13.766,12.382,21.02c3.637,7.28,6.727,14.809,9.449,22.475
								c2.618,7.705,4.663,15.572,6.377,23.568c1.535,8.024,2.66,16.149,3.353,24.352c2.592,32.888-2.618,66.569-13.072,99.358
								c17.546-30.011,27.267-64.764,27.461-99.995c-0.034-8.804-0.607-17.626-1.808-26.397c-1.263-8.757-3.23-17.45-5.715-25.996
								c-2.632-8.505-5.898-16.819-9.667-24.926c-3.954-8.023-8.424-15.81-13.445-23.276c-5.186-7.36-10.835-14.422-17.042-21.032
								c-6.346-6.486-13.109-12.606-20.413-18.106c-7.397-5.388-15.174-10.276-23.417-14.426
								c-8.282-4.045-16.897-7.372-25.719-9.999c-8.879-2.459-17.923-4.281-27.064-5.245c-9.164-0.812-18.349-0.998-27.469-0.363
								c-9.11,0.896-18.114,2.382-26.829,4.813C2747.134,2186.858,2738.767,2190.196,2730.96,2194.404z"/>
							<path style="fill:#704425;" d="M2613.334,2375.985c4.834,30.468,18.602,59.708,38.089,84.785
								c19.573,25.062,45.191,46.059,74.598,60.413c29.395,14.377,62.238,21.916,94.997,22.399
								c32.721,0.418,65.64-6.05,94.361-20.154c-31.208,7.11-62.677,9.374-93.379,6.325c-30.665-2.975-60.476-11.104-87.546-24.294
								c-27.062-13.207-51.417-31.522-71.888-53.509C2642.002,2429.982,2625.525,2404.296,2613.334,2375.985z"/>
							<path style="fill:#704425;" d="M2645.991,2318.66c2.883,0.204,5.708,0.323,8.507,0.746c2.794,0.309,5.554,0.771,8.275,1.323
								c5.438,1.155,10.751,2.538,15.948,4.293c5.205,1.706,10.306,3.668,15.355,5.787c5.005,2.233,9.989,4.468,14.894,6.795
								c19.48,9.65,37.663,21.258,54.235,34.76c16.456,13.624,31.436,28.905,44.637,45.763
								c13.084,16.961,24.269,35.381,34.303,55.203c-2.69-21.983-10.764-43.381-22.232-62.888
								c-11.697-19.403-26.97-36.891-44.765-51.557c-17.886-14.566-38.443-26.141-60.361-33.965
								c-2.708-1.043-5.564-1.75-8.333-2.628c-2.8-0.809-5.537-1.745-8.385-2.397c-5.647-1.421-11.419-2.53-17.249-3.27
								C2669.19,2315.192,2657.085,2315.396,2645.991,2318.66z"/>
						</g>
						<g>
							<g>
								<g>
									<path style="fill:#F4CCB5;" d="M2132.185,2563.969c0,0-5.676-8.769-8.115-17.184s0.645-31.44-7.841-28.951
										c-8.485,2.49-7.219,20.691-7.739,28.956c-0.52,8.265-2.919,23.809-3.217,25.92
										C2104.977,2574.821,2134.49,2571.291,2132.185,2563.969z"/>
									<path style="fill:#F4CCB5;" d="M2110.873,2551.211c0,0-5.049,8.523-20.496-0.468c-20.264-11.794-17.972-8.916-32.26-17.906
										c-11.708-7.366-15.373,1.018-5.517,10.1c8.169,7.528,16.417,13.654,24.822,20.955c4.721,4.102,3.231,5.957-2.982,5.46
										c-4.097-0.328-35.984-12.867-43.728-9.746c-5.894,2.376-1.563,9.3,9.058,12.299c9.799,2.767,36.424,13.038,36.227,15.346
										c-0.198,2.308-37.769-6.586-44.797-5.174c-7.028,1.412-4.837,7.292,5.748,10.229c7.579,2.102,42.578,9.772,43.765,13.815
										c1.732,5.9-16.54,10.084-22.924,14.666c-4.924,3.534-1.867,6.857,9.914,2.729c14.614-5.12,15.063-1.628,29.293-4.422
										c13.057-2.564,33.659-2.75,42.203-18.431C2148.463,2583.656,2127.573,2544.318,2110.873,2551.211z"/>
								</g>
								<path style="fill:#E0A089;" d="M2095.581,2572.986c-3.121,4.895-5.569,10.219-7.234,15.781
									c-0.497,1.66-0.907,3.529-0.096,5.06c1.137,2.147,3.996,2.531,6.422,2.655c7.145,0.364,14.29,0.727,21.436,1.091
									c-9.244-8.627-13.64-22.085-11.531-34.523c-0.078-0.017-0.158-0.025-0.239-0.024c-0.859,0.017-1.55,0.684-2.13,1.317
									C2099.754,2567.024,2097.536,2569.92,2095.581,2572.986z"/>
							</g>
							<path style="fill:#202930;" d="M2139.003,2565.353c0,0,116.01,42.991,123.687,64.991c6.212,17.802-5.22,64.554-74.999,34.421
								c-68.295-29.492-80.407-36.959-80.407-36.959L2139.003,2565.353z"/>
							<path style="fill:#202930;" d="M2318.722,2535.795c0,0-19.072-16.559-44.993,8.975
								c-25.921,25.534-45.191,44.992-65.881,70.13c-20.69,25.137,11.937,65.826,42.141,54.99
								c30.205-10.836,59.287-35.09,59.287-35.09L2318.722,2535.795z"/>
						</g>
						<g>
							<g>
								<g>
									<rect x="2329.442" y="2347.19" style="fill:#EDBEAD;" width="208.956" height="321.354"/>
								</g>
							</g>
							<path style="fill:#FFDB86;" d="M2292.44,2665.957l0.096,0.967c2.83,28.468,4.985,85.54,6.526,130.622h273.285
								c1.542-45.077,3.696-102.127,6.525-130.587l0.096-0.967l0.548-0.801c12.542-18.313,19.836-75.906,13.693-108.112
								c-1.809-9.479-4.692-15.972-8.123-18.285c-16.178-10.912-37.218-24.594-42.616-29.132c0,0-31.275,101.41-108.552,101.41
								c-77.277,0-109.46-101.443-109.46-101.443c-5.402,4.54-21.962,18.22-38.138,29.13c-3.43,2.313-6.315,8.808-8.122,18.289
								c-6.143,32.206,1.151,89.797,13.693,108.108L2292.44,2665.957z"/>
							<g>
								<path style="fill:#202930;" d="M2295.264,2797.546h280.882c1.527-44.624,3.692-101.939,6.503-130.211
									c17.658-25.783,24.202-118.443,4.562-131.689c-19.641-13.246-48.274-30.438-48.274-30.438s-69.851,174.934-105.017,176.068
									c-35.49-1.023-105.943-177.322-105.943-177.322s-24.137,18.411-43.778,31.657c-19.641,13.246-13.097,105.906,4.562,131.689
									C2291.571,2695.58,2293.737,2752.917,2295.264,2797.546z"/>
								<path style="fill:#181F24;" d="M2584.61,2622.18c-13.821,15.078-30.529,41.143-30.529,41.143
									c-13.024,15.477-37.468,37.676-47.892,48.936l24.393,31.799c0,0,27.643,0,41.464-2.513
									c-6.282,12.565-6.612,38.148-26.635,42.04c-20.023,3.891-233.633,9.192-239.695-7.895
									c-6.062-17.086-9.305-59.662-11.899-101.166c-1.505-24.073-9.044-37.784-19.873-60.285
									c2.569,22.12,7.819,42.844,14.817,53.063c2.811,28.279,4.977,85.617,6.504,130.245h280.883
									c1.527-44.624,3.692-101.939,6.503-130.211c7.269-10.614,12.651-32.56,15.103-55.633
									C2593.083,2614.694,2588.667,2618.123,2584.61,2622.18z"/>
								<path style="fill:#181F24;" d="M2448.357,2678.371c0,0,68.315-47.441,110.064-55.032
									c-5.693-15.181-30.362-32.26-30.362-32.26s20.874,0,30.362,7.591c-2.672-28.061-10.288-87.878-13.326-89.73
									c-3.811-2.322-6.158-3.732-6.158-3.732s-63.027,157.834-99.483,174.616L2448.357,2678.371z"/>
								<path style="fill:#181F24;" d="M2309.829,2602.465c17.079,0,34.157,0,51.237,5.693
									c-11.386,11.386-24.67,18.976-36.055,26.567c34.158,7.591,65.405,22.786,92.985,41.748c2.25,2.25,8.358,2.326,8.358,2.326
									c-37.041-21.375-98.376-174.844-98.376-174.844s-2.913,2.222-7.533,5.673
									C2319.474,2510.352,2309.829,2602.465,2309.829,2602.465z"/>
							</g>
						</g>
						<g>
							<path style="fill:#F4CCB5;" d="M2539.407,2758.386c-13.415-3.029-26.562-8.089-36.954-17.095
								c-5.254-4.554-10.206-11.378-7.892-17.935c1.318-3.734,4.693-6.3,7.957-8.542c7.109-4.883,14.103-10.292,22.206-13.245
								c6.378-2.324,29.356,24.478,29.356,24.478S2549.179,2760.593,2539.407,2758.386z"/>
							<path style="fill:#202930;" d="M2555.232,2743.977c20.225-9.309,52.251-25.183,72.476-34.492
								c9.192-4.231,19.059-9.098,23.542-18.17c5.105-10.333,1.594-22.65-1.989-33.604c-12.135-37.098-28.104-74.401-45.542-112.22
								c-6.208-13.462-16.908-15.285-28.748-3.446c-11.84,11.84-16.767,73.128-16.767,73.128l20.421,35.094
								c-19.928,17.619-35.033,33.294-57.778,50.854L2555.232,2743.977z"/>
						</g>
						<g>
							<g>
								<g>
									<g>
										<path style="fill:#F4CCB5;" d="M2880.019,2260.916c19.345-16.318,49.112-19.327,74.611-10.503
											c25.499,8.824,46.67,28.259,60.392,50.892c23.832,39.309,25.627,89.109,4.584,127.205
											c-21.042,38.096-64.215,63.209-110.277,64.146c-24.665,0.502-50.387-5.831-70.835-20.398
											c-20.448-14.567-34.918-37.87-35.187-61.555L2880.019,2260.916z"/>
									</g>
									<path style="fill:#E3AE9A;" d="M2924.769,2408.147c-1.817-2.942,1.444-7.722,4.78-14.585
										c3.428-6.79,6.903-16.169,6.851-26.404c-0.088-10.24-3.696-20.001-7.221-27.164c-3.433-7.228-6.761-12.36-4.984-15.109
										c0.863-1.299,2.982-1.766,6.18-1.075c3.191,0.68,7.376,2.653,11.814,6.166c4.435,3.496,8.986,8.634,12.524,15.225
										c3.542,6.561,5.948,14.647,6.05,23.268c0.015,8.613-2.28,16.444-5.733,22.628c-3.45,6.215-7.932,10.867-12.323,13.888
										c-4.393,3.039-8.554,4.563-11.738,4.901C2927.778,2410.235,2925.65,2409.539,2924.769,2408.147z"/>
								</g>
								<g>
									<g>
										<path style="fill:#F4CCB5;" d="M2068.284,1986.841c-0.903-25.293-18.667-49.366-42.331-62.331
											c-23.664-12.965-52.282-15.596-78.266-10.561c-45.13,8.745-83.23,40.863-97.322,82.04
											c-14.091,41.177-3.7,90.029,26.543,124.785c16.194,18.611,38.163,33.414,62.688,38.779
											c24.526,5.366,51.509,0.435,69.238-15.274L2068.284,1986.841z"/>
									</g>
									<path style="fill:#E3AE9A;" d="M1929.149,2052.573c3.4-0.63,4.751-6.256,7.595-13.337c2.728-7.1,7.343-15.974,14.96-22.81
										c7.646-6.813,17.301-10.695,24.975-12.895c7.66-2.311,13.698-3.292,14.541-6.456c0.383-1.511-0.694-3.395-3.354-5.301
										c-2.647-1.907-6.92-3.683-12.503-4.612c-5.569-0.938-12.431-0.858-19.691,0.947c-7.241,1.782-14.846,5.431-21.302,11.145
										c-6.391,5.773-10.651,12.733-12.914,19.446c-2.287,6.73-2.724,13.176-2.013,18.457c0.699,5.295,2.364,9.402,4.253,11.988
										C1925.582,2051.747,1927.526,2052.856,1929.149,2052.573z"/>
								</g>
							</g>
							<path style="fill:#F4CCB5;" d="M2536.572,2566.397c72.606-9.527,152.383-29.084,220.915-63.969
								c59.578-30.455,102.674-69.507,141.013-110.891c30.468-41.758,237.712-388.545,139.903-493.133
								c-84.265-89.047-129.721-108.253-340.737-201.375c-211.662-95.378-321.218-109.772-474.699-76.708
								c-166.076,35.777-245.136,392.851-248.54,453.729c-3.221,63.9,0.498,129.593,26.214,195.751
								c29.674,76.065,82.71,140.605,137.099,187.942c54.776,47.572,116.696,79.06,186.027,97.044
								C2393.135,2572.738,2463.651,2575.75,2536.572,2566.397z"/>
							<path style="fill:#E0A089;" d="M3038.403,1898.404c-84.265-89.047-129.721-108.253-340.737-201.375
								c-211.662-95.378-321.217-109.772-474.699-76.708c-89.825,19.351-154.192,132.692-194.904,242.324
								c25.939,4.24,230.37,9.406,402.557-187.288c0,0,34.111,126.134,76.426,191.575
								c52.626,81.387,110.745,125.483,190.955,176.423c80.506,49.657,304.619,144.394,309.447,146.574
								C3055.85,2079.251,3090.651,1954.273,3038.403,1898.404z"/>
							<g>
								<g>
									<g>
										
											<ellipse transform="matrix(0.2493 -0.9684 0.9684 0.2493 -178.0146 4334.5566)" style="fill:#E8948B;" cx="2706.715" cy="2282.095" rx="112.086" ry="130.668"/>
									</g>
									<g>
										
											<ellipse transform="matrix(0.2493 -0.9684 0.9684 0.2493 -436.235 3724.9597)" style="fill:#E8948B;" cx="2184.418" cy="2143.844" rx="112.086" ry="134.793"/>
									</g>
								</g>
								<g>
									
										<ellipse transform="matrix(0.2322 -0.9727 0.9727 0.2322 -170.4851 3741.8669)" style="fill:#FFFFFF;" cx="2284.798" cy="1978.916" rx="119.119" ry="100.454"/>
									<g>
										
											<ellipse transform="matrix(0.2322 -0.9727 0.9727 0.2322 -177.0702 3747.9246)" style="fill:#5E391F;" cx="2285.336" cy="1986.116" rx="102.619" ry="89.554"/>
										<g>
											<path style="fill:#FFFFFF;" d="M2261.34,1955.465c-0.454-3.435-3.636-6.056-8.867-6.444
												c-5.17-0.422-12.297,1.671-18.791,6.784c-6.49,5.12-10.781,12.026-12.333,17.746c-1.602,5.773-0.657,10.157,1.941,11.903
												c2.66,1.798,6.35,0.987,10.244-0.778c3.919-1.818,8.123-4.577,12.441-8.004c4.336-3.394,8.095-6.91,10.991-10.464
												C2259.811,1962.662,2261.814,1958.987,2261.34,1955.465z"/>
										</g>
									</g>
								</g>
								<g>
									
										<ellipse transform="matrix(0.2322 -0.9727 0.9727 0.2322 47.9063 4213.1304)" style="fill:#FFFFFF;" cx="2692.486" cy="2076.222" rx="119.119" ry="100.454"/>
									<g>
										
											<ellipse transform="matrix(0.2322 -0.9727 0.9727 0.2322 40.1785 4216.7212)" style="fill:#5E391F;" cx="2690.889" cy="2082.912" rx="102.619" ry="89.554"/>
										<g>
											<path style="fill:#FFFFFF;" d="M2726.141,2066.403c1.957-2.86,5.979-3.761,10.822-1.744
												c4.803,1.959,10.217,7.044,13.701,14.539c3.478,7.499,4.188,15.598,2.989,21.403c-1.178,5.874-4.001,9.359-7.107,9.743
												c-3.185,0.403-6.111-1.987-8.788-5.321c-2.676-3.392-5.18-7.753-7.485-12.76c-2.336-4.987-4.102-9.821-5.081-14.3
												C2724.255,2073.514,2724.128,2069.331,2726.141,2066.403z"/>
										</g>
									</g>
								</g>
								<path style="fill:#F1775B;" d="M2509.281,2120.758c1.773,2.582,1.605,6.108,0.125,8.885
									c-0.443,0.857-1.01,1.747-1.707,2.661c-0.704,0.88-1.557,1.705-2.535,2.575c-2.149,1.871-4.72,3.298-7.499,4.386
									c-1.513,0.654-3.122,1.023-4.859,1.456c-1.729,0.383-3.551,0.581-5.473,0.737c-31.62,1.438-52.729-33.076-37.072-60.563
									c1.013-1.641,2.017-3.174,3.146-4.539c1.176-1.35,2.236-2.615,3.507-3.665c2.231-1.979,4.674-3.62,7.317-4.682
									c1.219-0.476,2.342-0.859,3.446-1.086c1.131-0.205,2.181-0.305,3.146-0.31c11.532-0.023,9.119,13.322,10.408,21.155
									c0.042,0.667,0.246,1.453,0.318,2.115c0.11,0.692,0.291,1.413,0.392,2.068c0.573,2.402,1.283,4.985,2.379,6.977
									c0.468,0.844,0.87,1.472,1.166,2.035c0.366,0.52,0.743,1.162,1.282,1.964c1.277,1.883,3.25,3.688,5.13,5.292
									c0.538,0.389,1.097,0.877,1.664,1.29c0.557,0.365,1.164,0.903,1.739,1.245
									C2499.758,2114.162,2505.934,2116.127,2509.281,2120.758z"/>
								<path style="fill:#5E391F;" d="M2677.488,1906.254c42.978,8.163,82.544,31.615,109.742,66.001
									c5.109,6.46,16.184-0.246,11.021-6.774c-29.34-37.094-71.201-62.967-117.76-71.811
									C2672.339,1892.123,2669.289,1904.697,2677.488,1906.254L2677.488,1906.254z"/>
								<path style="fill:#5E391F;" d="M2254.065,1838.615c41.751-13.061,87.7-11.03,127.897,6.475
									c7.551,3.288,14.157-7.846,6.527-11.169c-43.362-18.883-92.477-21.967-137.707-7.818
									C2242.862,1828.58,2246.1,1841.107,2254.065,1838.615L2254.065,1838.615z"/>
								<path style="fill:#FFFFFF;" d="M2271.919,2106.75c0,0,192.87,96.852,398.217,102.053c0,0-61.209,198.146-236.679,178.125
									C2228.487,2363.542,2271.919,2106.75,2271.919,2106.75z"/>
							</g>
							<g>
								<path style="fill:#7D4C29;" d="M3085.467,1806.662c-6.371-20.392-13.96-40.421-22.905-59.98
									c-12.131-26.526-27.124-52.033-44.553-75.757c-28.423-132.144-154.308-226.712-285.407-272.823
									c-172.667-60.731-338.71-39.188-506.295,23.048c-125.119,46.465-181.312,102.87-276.819,231.297
									c-116.421,188.081-115.02,454.056-115.02,454.056s357.488-277.322,623.404-493.074c0,0,90.656,320.22,544.221,547.752
									l-43.357,139.847c0,0,119.143-167.191,138.458-249.85C3117.347,1964.924,3112.134,1892.02,3085.467,1806.662z"/>
								<path style="fill:#704425;" d="M2455.186,1597.603c14.333,42.093,32.45,82.887,53.392,122.099
									c21.536,40.322,46.138,78.998,73.238,115.805c27.751,37.69,58.105,73.505,90.781,107.017
									c32.565,33.399,67.478,64.541,104.591,92.81c36.222,27.59,74.477,52.567,114.744,73.855
									c4.872,2.576,9.774,5.094,14.702,7.561c7.724,3.868,14.122-7.942,6.386-11.815c-39.907-19.985-78.048-43.546-114.022-69.952
									c-37.172-27.286-72.205-57.468-104.965-89.91c-32.688-32.37-63.146-66.997-91.025-103.591
									c-27.613-36.244-52.785-74.375-74.998-114.163c-21.253-38.07-39.769-77.671-54.699-118.649
									c-1.823-5.003-3.589-10.026-5.305-15.066C2465.226,1585.439,2452.39,1589.392,2455.186,1597.603L2455.186,1597.603z"/>
								<path style="fill:#704425;" d="M2454.886,1595.888c5.413,51.527,19.891,101.805,40.565,149.227
									c22.231,50.994,51.205,98.88,85.101,142.951c35.34,45.948,75.79,87.941,120.37,124.99
									c45.127,37.503,94.446,70.151,147.042,96.213c52.151,25.842,107.691,45.355,164.926,56.184
									c7.089,1.341,14.202,2.542,21.335,3.619c3.586,0.541,7.19-1.305,8.05-5.034c0.768-3.33-1.429-7.506-5.034-8.05
									c-56.567-8.537-111.636-25.57-163.624-49.355c-52.466-24.004-101.935-54.561-147.263-90.231
									c-44.749-35.214-85.878-75.318-121.81-119.513c-34.635-42.6-64.789-89.019-88.442-138.604
									c-21.819-45.741-38.146-94.739-45.535-144.962c-0.881-5.985-1.631-11.987-2.262-18.003
									C2467.408,1586.775,2453.98,1587.261,2454.886,1595.888L2454.886,1595.888z"/>
								<path style="fill:#704425;" d="M2452.674,1608.533c-16.944,16.931-34.3,33.45-52.138,49.438
									c-8.276,7.417-16.653,14.721-25.137,21.899c-8.762,7.414-15.569,13.003-24.44,20.057
									c-31.039,24.682-63.479,47.587-97.197,68.465c-31.113,19.265-63.279,36.776-96.107,52.933
									c-8.017,3.946-16.072,7.813-24.158,11.613c-4.045,1.901-8.097,3.785-12.157,5.654c1.538-0.708-0.241,0.11-0.462,0.211
									c-0.531,0.243-1.061,0.486-1.592,0.729c-0.973,0.445-1.947,0.89-2.921,1.334c-2.127,0.969-4.255,1.934-6.385,2.895
									c-16.56,7.472-33.22,14.719-49.929,21.85c-34.938,14.91-70.078,29.339-105.066,44.129c-4.565,1.93-9.128,3.865-13.688,5.807
									c-3.426,1.459-6.087,5.064-4.688,8.941c1.204,3.339,5.267,6.253,8.941,4.688c35.48-15.109,71.15-29.768,106.663-44.798
									c33.942-14.366,67.732-29.122,100.957-45.088c32.989-15.853,65.375-32.972,96.749-51.832
									c33.741-20.283,66.265-42.556,97.406-66.641c35.952-27.806,70.114-57.882,102.666-89.589
									c4.387-4.273,8.744-8.577,13.077-12.906c2.645-2.643,2.554-7.623-0.302-10.091
									C2459.763,1605.638,2455.497,1605.712,2452.674,1608.533L2452.674,1608.533z"/>
								<path style="fill:#704425;" d="M2520.626,1610.265c28.283,52.822,62.771,102.185,102.744,146.827
									c38.498,42.995,82.044,81.202,129.168,114.478c47.274,33.382,98.159,61.529,151.2,84.631
									c54.01,23.523,110.204,41.973,167.47,55.73c30.649,7.363,65.311,17.005,94.858,0.944
									c12.32-6.697,22.646-18.288,25.478-32.289c2.61-12.903-0.951-27.32-10.94-36.294c-4.925-4.424-11.07-7.273-17.591-8.33
									c-3.806-0.617-7.651,1.416-8.558,5.352c-0.823,3.573,1.527,7.938,5.352,8.558c10.658,1.726,17.638,9.847,18.277,20.572
									c0.698,11.695-6.324,21.931-15.965,28.177c-25.708,16.656-59.297,6.194-86.595-0.334
									c-54.789-13.101-108.607-30.437-160.392-52.656c-50.996-21.882-100.044-48.39-145.868-79.717
									c-45.613-31.182-87.869-67.341-125.592-107.719c-38.687-41.411-72.359-87.374-100.479-136.569
									c-3.578-6.26-7.062-12.573-10.465-18.929C2528.385,1594.582,2516.304,1602.194,2520.626,1610.265L2520.626,1610.265z"/>
								<path style="fill:#704425;" d="M2426.771,1510.358c-24.554,41.815-54.479,79.929-89.008,114.159
									c-34.461,34.162-72.912,63.764-114.656,88.659c-41.474,24.734-85.489,44.325-131.703,58.486
									c-46.46,14.236-94.051,22.622-142.623,24.627c-56.089,2.315-114.922-3.53-165.68-29.162
									c-6.3-3.181-12.431-6.677-18.383-10.469c-3.251-2.071-7.939-0.333-9.675,2.886c-1.944,3.603-0.377,7.596,2.886,9.675
									c50.612,32.247,113.113,42.157,172.191,41.794c49.604-0.305,99.181-7.401,147.041-20.381
									c47.909-12.993,94.202-32.033,137.572-56.165c43.388-24.142,83.843-53.585,120.175-87.428
									c36.302-33.814,68.329-72.237,94.852-114.172c3.279-5.185,6.466-10.427,9.573-15.718
									C2443.994,1509.207,2431.414,1502.45,2426.771,1510.358L2426.771,1510.358z"/>
								<g>
									<path style="fill:#704425;" d="M3105.283,1716.033c-2.923,0.126-5.814-1.336-7.384-4.042
										c-23.051-39.75-71.103-64.668-116.89-60.619c-4.45,0.413-8.414-2.905-8.809-7.374c-0.396-4.469,2.905-8.413,7.374-8.809
										c52.657-4.685,105.86,22.918,132.381,68.651c2.25,3.881,0.929,8.852-2.952,11.103
										C3107.827,1715.624,3106.552,1715.978,3105.283,1716.033z"/>
									<path style="fill:#704425;" d="M2958.885,1614.008c-2.097,0.09-4.229-0.627-5.886-2.172
										c-3.283-3.057-3.466-8.198-0.408-11.481c28.561-30.668,73.571-45.182,114.671-36.989c4.4,0.878,7.255,5.156,6.378,9.556
										c-0.879,4.4-5.166,7.256-9.556,6.378c-35.7-7.122-74.796,5.49-99.604,32.129
										C2962.966,1613.054,2960.941,1613.919,2958.885,1614.008z"/>
								</g>
							</g>
							<path style="fill:#704425;" d="M3012.275,1674.511c22.145,31.217,40.987,64.839,55.649,100.205
								c15.074,36.359,26.074,74.581,31.63,113.575c5.705,40.042,5.969,80.933-0.263,120.929
								c-6.307,40.477-19.147,79.551-37.083,116.338c-19.544,40.085-44.447,77.358-71.629,112.629
								c-3.724,4.833-7.494,9.629-11.298,14.4c-2.276,2.854-2.524,6.913,0.286,9.561c2.491,2.347,7.274,2.582,9.561-0.286
								c28.99-36.356,56.094-74.528,77.805-115.728c19.666-37.318,34.723-77.205,42.858-118.654
								c8.052-41.024,9.631-83.295,5.147-124.843c-4.364-40.44-14.186-80.252-28.654-118.251
								c-14.095-37.021-32.439-72.475-54.491-105.381c-2.631-3.925-5.318-7.812-8.052-11.666c-2.112-2.978-6.096-4.164-9.319-2.148
								C3011.46,1667.044,3010.153,1671.52,3012.275,1674.511L3012.275,1674.511z"/>
							<path style="fill:#704425;" d="M2961.768,1542.725c-62.206-70.646-144.893-120.166-233.599-150.092
								c-90.893-30.663-188.614-41.321-284.14-34.296c-94.439,6.946-188.608,30.998-271.82,76.861
								c-82.1,45.25-152.769,110.176-206.349,186.966c-52.827,75.711-88.872,163.767-101.514,255.366
								c-1.576,11.42-2.766,22.89-3.657,34.383c-0.28,3.611,3.652,6.47,6.933,6.368c3.943-0.123,6.092-3.367,6.368-6.933
								c7.011-90.491,37.676-178.36,85.442-255.312c48.233-77.705,114.221-144.476,191.758-193.04
								c78.798-49.354,168.88-77.444,260.93-88.259c93.731-11.013,189.859-4.61,280.815,20.915
								c88.041,24.708,171.75,68.314,237.163,132.873c7.796,7.694,15.304,15.669,22.542,23.889
								C2958.31,1558.854,2967.384,1549.104,2961.768,1542.725L2961.768,1542.725z"/>
						</g>
					</g>
				</g>
			</g>
		</g>
	</g>
	<g id="headache">
		<g>
			<path style="fill:#808080;" d="M3035.238,2135.252c0.123-0.559,12.354-56.865,10.399-136.809
				c-1.785-73.016-16.123-181.452-74.3-283.385l42.332-24.16c63.512,111.282,78.958,228.85,80.73,307.882
				c1.919,85.517-11.035,144.6-11.588,147.073L3035.238,2135.252z"/>
		</g>
		<g>
			<g>
				<path style="fill:#1A1A1A;" d="M2982.217,2301.106c-35.284,129.104-61.021,233.501-105.225,221.421
					c-44.204-12.081-20.963-118.207,14.321-247.311s69.25-232.299,113.454-220.218
					C3048.971,2067.078,3017.501,2172.001,2982.217,2301.106z"/>
			</g>
			<g>
				<g>
					<g>
						<path style="fill:#666666;" d="M2975.585,2510.385l8.87,2.424c11.84,3.236,24.062-3.739,27.297-15.579l88.882-325.221
							c3.236-11.84-3.739-24.062-15.579-27.297l-8.87-2.424L2975.585,2510.385z"/>
					</g>
					<g>
						
							<rect x="2959.11" y="2121.571" transform="matrix(0.9646 0.2636 -0.2636 0.9646 718.2781 -709.1797)" style="fill:#CCCCCC;" width="85.029" height="400.452"/>
					</g>
				</g>
			</g>
		</g>
		<g>
			<path style="fill:#808080;" d="M1927.157,1832.416c0.178-0.544,18.286-55.244,60.628-123.082
				c38.673-61.959,106.169-148.03,208.103-206.206l-24.16-42.332c-111.283,63.511-184.377,156.881-226.099,224.026
				c-45.147,72.654-64.043,130.113-64.825,132.524L1927.157,1832.416z"/>
		</g>
		<g>
			<g>
				<g>
					<path style="fill:#1A1A1A;" d="M2088.306,2384.701c-0.009-0.002-0.015-0.004-0.024-0.006l-106.844-29.697
						c-0.598-0.161-1.202-0.325-1.792-0.486c-69.024-18.863-96.54-41.485-112.81-59.132
						c-37.168-40.315-46.91-103.163-23.686-152.835c1.34-2.861,4.724-4.095,7.607-2.759c2.862,1.338,4.097,4.743,2.759,7.605
						c-21.308,45.576-12.372,103.243,21.732,140.234c29.083,31.544,71.548,46.213,109.211,56.338l106.886,29.709
						c3.045,0.846,4.826,3.999,3.98,7.044C2094.483,2383.75,2091.344,2385.531,2088.306,2384.701z"/>
				</g>
				<g>
					
						<ellipse transform="matrix(0.2636 -0.9646 0.9646 0.2636 -764.3139 3753.2151)" style="fill:#1A1A1A;" cx="2076.145" cy="2377.222" rx="32.48" ry="53.47"/>
				</g>
			</g>
			<g>
				<path style="fill:#1A1A1A;" d="M1896.211,2004.304c-35.284,129.105-66.221,232.08-22.017,244.161
					c44.204,12.081,78.17-91.114,113.454-220.218s58.525-235.23,14.321-247.311
					C1957.764,1768.855,1931.495,1875.199,1896.211,2004.304z"/>
			</g>
			<g>
				<g>
					<g>
						<path style="fill:#666666;" d="M1795.481,2187.867l-8.87-2.424c-11.84-3.236-18.815-15.457-15.579-27.297l88.882-325.221
							c3.236-11.84,15.457-18.815,27.297-15.579l8.87,2.424L1795.481,2187.867z"/>
					</g>
					<g>
						
							<rect x="1826.464" y="1812.022" transform="matrix(-0.9646 -0.2636 0.2636 -0.9646 3141.3538 4446.0273)" style="fill:#CCCCCC;" width="85.029" height="400.452"/>
					</g>
				</g>
			</g>
		</g>
		<g>
			<g>
				<path style="fill:#1A1A1A;" d="M3056.656,1770.006c-64.622-180.344-213.246-327.349-412.072-381.687
					c-199.572-54.542-403.073-2.965-550.572,120.443l59.204,45.668c34.876-27.486,73.219-50.765,114.214-68.985
					c55.169-24.518,113.493-39.435,173.354-44.333c61.939-5.069,124.061,0.756,184.641,17.312
					c60.58,16.556,117.029,43.137,167.779,79.003c49.049,34.663,91.681,77.17,126.71,126.339
					c25.605,35.942,46.514,74.791,62.465,115.458L3056.656,1770.006z"/>
			</g>
		</g>
	</g>
	<g id="symbols">
		<g>
			<g>
				
					<ellipse transform="matrix(0.7071 -0.7071 0.7071 0.7071 -730.6033 1074.0575)" style="fill:#2156AC;" cx="931.2" cy="1418.945" rx="110.385" ry="110.385"/>
				
					<ellipse transform="matrix(0.7071 -0.7071 0.7071 0.7071 -729.5811 1069.1238)" style="fill:#FFFFFF;" cx="925.756" cy="1415.244" rx="106.684" ry="106.684"/>
			</g>
			<path style="fill:#2C73E5;" d="M948.836,1424.039l-18.511-19.715c5.227-8.664,5.787-19.84,0.474-29.228l0,0
				c-7.831-13.837-25.559-18.751-39.396-10.92l0,0c-12.291,6.956-17.533,21.719-13.065,34.629c0.653,2.614,1.905,5.102,3.737,7.272
				c1.452,2.045,54.297,58.432,56.735,60.056c2.244,1.667,4.793,2.751,7.443,3.253c5.505,1.331,11.502,0.672,16.79-2.32h0
				c11.059-6.259,14.987-20.428,8.728-31.488v0C967.05,1427.236,957.828,1422.955,948.836,1424.039z"/>
		</g>
		<g>
			<g>
				
					<ellipse transform="matrix(0.7071 -0.7071 0.7071 0.7071 -922.9027 1153.7106)" style="fill:#2156AC;" cx="931.2" cy="1690.897" rx="110.385" ry="110.385"/>
				
					<ellipse transform="matrix(0.7071 -0.7071 0.7071 0.7071 -921.8806 1148.7769)" style="fill:#FFFFFF;" cx="925.756" cy="1687.197" rx="106.684" ry="106.684"/>
			</g>
			<g>
				<path style="fill:#2C73E5;" d="M957.706,1639.904h-54.754c-20.208,0-36.742,16.534-36.742,36.742v28.503
					c0,20.208,16.534,36.742,36.742,36.742h54.754c20.208,0,36.742-16.534,36.742-36.742v-28.503
					C994.448,1656.438,977.914,1639.904,957.706,1639.904z M979.519,1668.024l-47.468,26.017c-0.536,0.294-1.13,0.441-1.723,0.441
					c-0.596,0-1.191-0.148-1.729-0.445l-47.234-26.017c-1.734-0.956-2.366-3.136-1.41-4.869c0.955-1.734,3.136-2.364,4.869-1.411
					l45.509,25.067l45.741-25.07c1.734-0.95,3.914-0.316,4.866,1.42C981.892,1664.894,981.256,1667.073,979.519,1668.024z"/>
			</g>
		</g>
		<g>
			<g>
				
					<ellipse transform="matrix(0.7071 -0.7071 0.7071 0.7071 -1115.2021 1233.3635)" style="fill:#2156AC;" cx="931.2" cy="1962.85" rx="110.385" ry="110.385"/>
				
					<ellipse transform="matrix(0.7071 -0.7071 0.7071 0.7071 -1114.1799 1228.4298)" style="fill:#FFFFFF;" cx="925.756" cy="1959.149" rx="106.684" ry="106.684"/>
			</g>
			<g>
				<path style="fill:#2C73E5;" d="M930.329,1900.409c-26.63,0-48.218,21.588-48.218,48.218c0,26.63,48.218,76.664,48.218,76.664
					s48.218-50.033,48.218-76.664C978.547,1921.997,956.959,1900.409,930.329,1900.409z M930.329,1968.4
					c-8.909,0-16.131-7.222-16.131-16.13c0-8.909,7.222-16.131,16.131-16.131c8.909,0,16.131,7.222,16.131,16.131
					C946.459,1961.178,939.237,1968.4,930.329,1968.4z"/>
			</g>
		</g>
		<g>
			<path style="fill:#FFFFFF;" d="M1150.487,1441.26v-90.881h-31.303v-9.818h73.532v9.818h-31.451v90.881H1150.487z"/>
			<path style="fill:#FFFFFF;" d="M1212.022,1438.343c-4.799-2.779-8.479-6.706-11.037-11.775
				c-2.56-5.069-3.839-11.025-3.839-17.867v-11.96c0-6.989,1.34-13.017,4.024-18.087c2.682-5.069,6.361-8.994,11.037-11.775
				c4.675-2.781,10.065-4.172,16.168-4.172c6.102,0,11.491,1.379,16.168,4.135c4.676,2.757,8.354,6.681,11.037,11.775
				c2.682,5.094,4.024,11.136,4.024,18.124v8.638h-51.752v4.061c0,6.743,1.82,12.366,5.463,16.869
				c3.642,4.504,8.957,6.755,15.946,6.755c3.396,0,6.361-0.503,8.896-1.514c2.535-1.008,4.552-2.288,6.054-3.839
				c1.501-1.55,2.498-3.162,2.99-4.836h11.296c-0.247,1.97-1.034,4.098-2.362,6.386c-1.329,2.288-3.2,4.43-5.611,6.423
				c-2.412,1.992-5.378,3.629-8.896,4.909c-3.519,1.279-7.616,1.919-12.292,1.919
				C1222.591,1442.514,1216.82,1441.125,1212.022,1438.343z M1248.824,1397.111c0-0.246,0-0.48,0-0.701c0-0.222,0-0.431,0-0.628
				c0-4.773-0.838-8.933-2.51-12.477c-1.674-3.543-4.06-6.276-7.161-8.195c-3.101-1.92-6.694-2.879-10.779-2.879
				c-4.135,0-7.74,0.96-10.816,2.879c-3.077,1.919-5.463,4.652-7.161,8.195c-1.698,3.544-2.547,7.704-2.547,12.477
				c0,0.197,0,0.406,0,0.628c0,0.221,0,0.455,0,0.701H1248.824z"/>
			<path style="fill:#FFFFFF;" d="M1283.301,1335.17h10.631v106.089h-10.631V1335.17z"/>
			<path style="fill:#FFFFFF;" d="M1332.876,1438.343c-4.799-2.779-8.479-6.706-11.037-11.775
				c-2.56-5.069-3.839-11.025-3.839-17.867v-11.96c0-6.989,1.34-13.017,4.024-18.087c2.682-5.069,6.361-8.994,11.037-11.775
				c4.675-2.781,10.065-4.172,16.168-4.172c6.102,0,11.491,1.379,16.168,4.135c4.676,2.757,8.354,6.681,11.037,11.775
				c2.682,5.094,4.023,11.136,4.023,18.124v8.638h-51.752v4.061c0,6.743,1.82,12.366,5.463,16.869
				c3.642,4.504,8.957,6.755,15.946,6.755c3.396,0,6.361-0.503,8.896-1.514c2.535-1.008,4.552-2.288,6.054-3.839
				c1.501-1.55,2.498-3.162,2.99-4.836h11.296c-0.247,1.97-1.034,4.098-2.362,6.386c-1.329,2.288-3.2,4.43-5.611,6.423
				c-2.412,1.992-5.378,3.629-8.896,4.909c-3.519,1.279-7.616,1.919-12.292,1.919
				C1343.445,1442.514,1337.675,1441.125,1332.876,1438.343z M1369.679,1397.111c0-0.246,0-0.48,0-0.701c0-0.222,0-0.431,0-0.628
				c0-4.773-0.838-8.933-2.51-12.477c-1.674-3.543-4.06-6.276-7.161-8.195c-3.101-1.92-6.694-2.879-10.779-2.879
				c-4.134,0-7.74,0.96-10.816,2.879c-3.077,1.919-5.463,4.652-7.161,8.195c-1.698,3.544-2.547,7.704-2.547,12.477
				c0,0.197,0,0.406,0,0.628c0,0.221,0,0.455,0,0.701H1369.679z"/>
			<path style="fill:#FFFFFF;" d="M1427.338,1440.854c-3.003-1.108-5.549-2.645-7.641-4.614c-2.092-1.969-3.728-4.257-4.909-6.866
				h-0.517v37.357h-10.631v-102.767h10.114v12.772h0.517c0.738-1.968,1.82-3.802,3.248-5.5c1.427-1.699,3.15-3.187,5.168-4.467
				c2.018-1.279,4.33-2.276,6.94-2.99c2.608-0.713,5.389-1.071,8.342-1.071c6.054,0,11.296,1.342,15.725,4.024
				c4.43,2.683,7.874,6.473,10.336,11.369c2.46,4.899,3.691,10.668,3.691,17.313v14.322c0,6.792-1.255,12.637-3.765,17.534
				c-2.51,4.899-6.029,8.664-10.557,11.296c-4.529,2.633-9.819,3.949-15.873,3.949
				C1433.735,1442.514,1430.339,1441.962,1427.338,1440.854z M1447.234,1430.037c3.125-2.017,5.537-4.933,7.235-8.748
				c1.698-3.814,2.547-8.477,2.547-13.99v-9.229c0-5.511-0.838-10.2-2.51-14.063c-1.674-3.864-4.097-6.803-7.272-8.823
				c-3.175-2.017-7.002-3.026-11.48-3.026c-4.381,0-8.183,0.996-11.406,2.989c-3.224,1.994-5.71,4.788-7.457,8.38
				c-1.747,3.594-2.621,7.801-2.621,12.624v14.322c0,4.43,0.923,8.343,2.768,11.739c1.846,3.396,4.405,6.053,7.678,7.973
				c3.273,1.919,7.075,2.879,11.407,2.879C1440.406,1433.065,1444.108,1432.057,1447.234,1430.037z"/>
			<path style="fill:#FFFFFF;" d="M1491.567,1335.17h10.631v43.189h0.591c0.59-1.92,1.759-4.109,3.507-6.571
				c1.747-2.46,4.319-4.577,7.715-6.348c3.396-1.773,7.776-2.658,13.141-2.658c7.481,0,13.706,2.154,18.678,6.461
				c4.97,4.307,7.457,10.741,7.457,19.305v52.713h-10.631v-49.243c0-4.183-0.751-7.752-2.251-10.705
				c-1.502-2.952-3.63-5.216-6.386-6.791c-2.757-1.575-6.079-2.362-9.967-2.362c-4.824,0-8.859,1.157-12.107,3.469
				c-3.249,2.314-5.685,5.402-7.309,9.266c-1.624,3.865-2.436,8.133-2.436,12.809v43.558h-10.631V1335.17z"/>
			<path style="fill:#FFFFFF;" d="M1625.674,1366.657c4.897,2.634,8.785,6.46,11.665,11.48c2.879,5.021,4.319,11.124,4.319,18.309
				v12.329c0,7.187-1.44,13.289-4.319,18.309c-2.879,5.02-6.768,8.848-11.665,11.48c-4.898,2.633-10.422,3.949-16.574,3.949
				c-6.251,0-11.838-1.303-16.759-3.912c-4.922-2.609-8.798-6.423-11.627-11.443c-2.831-5.021-4.245-11.148-4.245-18.383v-12.255
				c0-6.989,1.414-13.005,4.245-18.052c2.829-5.044,6.718-8.933,11.664-11.664c4.946-2.732,10.52-4.098,16.722-4.098
				C1615.252,1362.707,1620.776,1364.025,1625.674,1366.657z M1597.582,1375.369c-3.298,2.092-5.858,5.046-7.678,8.859
				c-1.821,3.816-2.731,8.306-2.731,13.474v9.892c0,5.267,0.873,9.795,2.621,13.585c1.746,3.791,4.269,6.718,7.567,8.786
				c3.297,2.066,7.235,3.1,11.813,3.1c4.528,0,8.416-1.02,11.665-3.063c3.248-2.042,5.759-4.971,7.53-8.786
				c1.772-3.813,2.658-8.354,2.658-13.622v-9.892c0-5.168-0.911-9.646-2.731-13.437c-1.821-3.789-4.369-6.742-7.641-8.859
				c-3.274-2.116-7.1-3.175-11.48-3.175C1604.744,1372.231,1600.879,1373.278,1597.582,1375.369z"/>
			<path style="fill:#FFFFFF;" d="M1665.208,1363.963h10.631v14.396h0.591c0.688-2.166,1.857-4.455,3.507-6.866
				c1.649-2.411,4.097-4.467,7.346-6.164c3.249-1.699,7.555-2.547,12.92-2.547c7.826,0,14.175,2.129,19.048,6.387
				c4.872,4.257,7.309,10.693,7.309,19.305v52.787h-10.557v-49.391c0-4.134-0.714-7.665-2.141-10.593
				c-1.428-2.929-3.483-5.18-6.164-6.755c-2.683-1.575-5.968-2.362-9.856-2.362c-4.971,0-9.081,1.157-12.329,3.469
				c-3.249,2.314-5.673,5.402-7.272,9.266c-1.6,3.865-2.399,8.133-2.399,12.809v43.558h-10.631V1363.963z"/>
			<path style="fill:#FFFFFF;" d="M1764.616,1438.343c-4.799-2.779-8.479-6.706-11.037-11.775
				c-2.56-5.069-3.839-11.025-3.839-17.867v-11.96c0-6.989,1.34-13.017,4.023-18.087c2.682-5.069,6.361-8.994,11.037-11.775
				c4.675-2.781,10.065-4.172,16.168-4.172c6.102,0,11.491,1.379,16.168,4.135c4.675,2.757,8.354,6.681,11.037,11.775
				c2.682,5.094,4.023,11.136,4.023,18.124v8.638h-51.752v4.061c0,6.743,1.82,12.366,5.463,16.869
				c3.642,4.504,8.957,6.755,15.946,6.755c3.396,0,6.361-0.503,8.896-1.514c2.534-1.008,4.552-2.288,6.054-3.839
				c1.501-1.55,2.498-3.162,2.99-4.836h11.296c-0.247,1.97-1.034,4.098-2.362,6.386c-1.329,2.288-3.2,4.43-5.611,6.423
				c-2.412,1.992-5.378,3.629-8.896,4.909c-3.519,1.279-7.616,1.919-12.292,1.919
				C1775.185,1442.514,1769.415,1441.125,1764.616,1438.343z M1801.418,1397.111c0-0.246,0-0.48,0-0.701c0-0.222,0-0.431,0-0.628
				c0-4.773-0.837-8.933-2.51-12.477c-1.674-3.543-4.061-6.276-7.161-8.195c-3.101-1.92-6.694-2.879-10.779-2.879
				c-4.135,0-7.74,0.96-10.816,2.879c-3.077,1.919-5.463,4.652-7.161,8.195c-1.698,3.544-2.547,7.704-2.547,12.477
				c0,0.197,0,0.406,0,0.628c0,0.221,0,0.455,0,0.701H1801.418z"/>
		</g>
		<g>
			<path style="fill:#FFFFFF;" d="M1178.541,1729.756h-59.357v-100.7h59.357v9.819h-48.578v34.477h45.92v9.746h-45.92v36.766h48.578
				V1729.756z"/>
			<path style="fill:#FFFFFF;" d="M1196.48,1693.212v-9.597h46.511v9.597H1196.48z"/>
			<path style="fill:#FFFFFF;" d="M1264.181,1652.46h10.631v12.329h0.591c0.59-1.771,1.624-3.716,3.101-5.833
				c1.477-2.116,3.642-3.924,6.497-5.427c2.853-1.5,6.668-2.251,11.443-2.251c3.987,0,7.457,0.654,10.409,1.957
				c2.953,1.305,5.377,3.077,7.272,5.316c1.894,2.24,3.26,4.737,4.098,7.493h0.517c0.984-2.509,2.461-4.884,4.429-7.124
				c1.968-2.239,4.54-4.072,7.715-5.5c3.174-1.427,6.951-2.141,11.332-2.141c7.874,0,14.101,2.056,18.678,6.164
				c4.577,4.11,6.866,10.103,6.866,17.978v54.336h-10.631v-51.457c0-3.544-0.664-6.632-1.994-9.266
				c-1.329-2.633-3.285-4.688-5.869-6.164c-2.584-1.477-5.747-2.214-9.487-2.214c-3.544,0-6.707,0.861-9.487,2.583
				c-2.781,1.723-4.972,4.036-6.57,6.94c-1.6,2.904-2.399,6.177-2.399,9.818v49.76h-10.631v-50.94c0-3.544-0.714-6.681-2.141-9.414
				c-1.428-2.731-3.445-4.873-6.053-6.422c-2.61-1.551-5.784-2.325-9.524-2.325c-3.593,0-6.768,0.849-9.524,2.546
				c-2.757,1.699-4.885,4.013-6.386,6.94c-1.502,2.929-2.252,6.238-2.252,9.929v49.686h-10.631V1652.46z"/>
			<path style="fill:#FFFFFF;" d="M1397.142,1724.552c-4.677-4.307-7.014-10.028-7.014-17.165c0-6.694,2.288-12.108,6.866-16.242
				c4.577-4.135,11.271-6.202,20.081-6.202h21.115v-8.343c0-5.463-1.6-9.474-4.799-12.034c-3.2-2.559-7.506-3.839-12.92-3.839
				c-3.643,0-6.607,0.443-8.896,1.33c-2.288,0.886-4.061,2.08-5.316,3.58c-1.255,1.502-2.129,3.163-2.621,4.984h-10.409
				c0.245-3.101,1.071-5.857,2.473-8.269c1.403-2.411,3.297-4.453,5.685-6.127c2.386-1.673,5.229-2.916,8.527-3.728
				c3.297-0.813,6.989-1.219,11.074-1.219c5.118,0,9.806,0.825,14.064,2.473c4.257,1.649,7.653,4.319,10.188,8.01
				c2.534,3.692,3.802,8.564,3.802,14.618v53.377h-10.335v-10.705h-0.517c-1.231,2.019-2.867,3.95-4.91,5.796
				c-2.043,1.845-4.54,3.336-7.493,4.467c-2.953,1.131-6.423,1.698-10.41,1.698
				C1407.895,1731.011,1401.817,1728.859,1397.142,1724.552z M1428.224,1719.162c3.051-1.599,5.474-3.776,7.272-6.533
				c1.796-2.756,2.695-5.881,2.695-9.377v-9.302h-20.967c-5.71,0-9.808,1.255-12.292,3.765c-2.486,2.51-3.728,5.661-3.728,9.45
				c0,4.873,1.685,8.491,5.057,10.853c3.371,2.362,7.272,3.543,11.702,3.543C1421.751,1721.561,1425.171,1720.762,1428.224,1719.162
				z"/>
			<path style="fill:#FFFFFF;" d="M1477.319,1622.707c1.575-1.574,3.47-2.362,5.685-2.362c2.46,0,4.466,0.775,6.017,2.325
				c1.551,1.551,2.325,3.507,2.325,5.87s-0.788,4.319-2.362,5.868c-1.576,1.551-3.569,2.326-5.98,2.326
				c-2.215,0-4.11-0.776-5.685-2.326c-1.576-1.55-2.362-3.506-2.362-5.868C1474.956,1626.227,1475.743,1624.283,1477.319,1622.707z
				 M1477.836,1652.46h10.705v77.297h-10.705V1652.46z"/>
			<path style="fill:#FFFFFF;" d="M1518.292,1623.667h10.631v106.089h-10.631V1623.667z"/>
		</g>
		<g>
			<path style="fill:#FFFFFF;" d="M1177.581,2004.484h-58.397v-100.7h10.853v90.807h47.545V2004.484z"/>
			<path style="fill:#FFFFFF;" d="M1240.15,1929.882c4.897,2.634,8.785,6.46,11.665,11.48c2.879,5.021,4.319,11.123,4.319,18.309
				V1972c0,7.187-1.44,13.289-4.319,18.309c-2.879,5.02-6.768,8.848-11.665,11.48c-4.898,2.633-10.422,3.949-16.574,3.949
				c-6.251,0-11.838-1.303-16.759-3.912c-4.922-2.609-8.798-6.423-11.628-11.443c-2.831-5.021-4.245-11.148-4.245-18.383v-12.255
				c0-6.988,1.414-13.005,4.245-18.051c2.829-5.044,6.718-8.933,11.665-11.664c4.946-2.732,10.52-4.098,16.722-4.098
				C1229.727,1925.932,1235.251,1927.249,1240.15,1929.882z M1212.058,1938.594c-3.298,2.092-5.858,5.046-7.678,8.859
				c-1.821,3.816-2.731,8.306-2.731,13.474v9.892c0,5.268,0.873,9.795,2.621,13.585c1.746,3.791,4.269,6.718,7.567,8.786
				c3.297,2.066,7.235,3.1,11.813,3.1c4.527,0,8.416-1.02,11.665-3.063c3.248-2.042,5.759-4.972,7.53-8.786
				c1.772-3.813,2.658-8.354,2.658-13.622v-9.892c0-5.168-0.911-9.646-2.731-13.437c-1.821-3.789-4.369-6.742-7.641-8.859
				c-3.274-2.116-7.1-3.175-11.48-3.175C1219.219,1935.455,1215.355,1936.502,1212.058,1938.594z"/>
			<path style="fill:#FFFFFF;" d="M1275.919,1959.006c0-6.742,1.279-12.588,3.839-17.533c2.558-4.947,6.201-8.772,10.926-11.48
				c4.725-2.707,10.286-4.061,16.685-4.061c6.349,0,11.639,1.145,15.873,3.433c4.232,2.288,7.444,5.181,9.634,8.675
				c2.19,3.495,3.334,7.039,3.433,10.631h-10.631c-0.295-1.722-1.033-3.592-2.214-5.611s-3.052-3.753-5.611-5.206
				c-2.56-1.451-6.005-2.177-10.336-2.177c-6.792,0-11.985,2.129-15.577,6.387c-3.594,4.257-5.39,10.102-5.39,17.533v12.846
				c0,7.235,1.882,12.969,5.648,17.202c3.766,4.234,8.896,6.349,15.393,6.349c4.183,0,7.542-0.578,10.078-1.736
				c2.535-1.156,4.466-2.645,5.796-4.466c1.329-1.821,2.239-3.74,2.731-5.759h10.631c-0.148,3.396-1.281,6.768-3.396,10.114
				c-2.117,3.347-5.316,6.116-9.598,8.305c-4.282,2.19-9.77,3.285-16.463,3.285c-6.399,0-11.96-1.352-16.685-4.06
				c-4.725-2.707-8.368-6.546-10.926-11.517c-2.56-4.97-3.839-10.877-3.839-17.719V1959.006z"/>
			<path style="fill:#FFFFFF;" d="M1361.411,1999.279c-4.677-4.307-7.014-10.028-7.014-17.165c0-6.694,2.288-12.108,6.866-16.242
				c4.577-4.135,11.271-6.201,20.081-6.201h21.115v-8.343c0-5.462-1.6-9.474-4.799-12.034c-3.2-2.559-7.506-3.839-12.92-3.839
				c-3.643,0-6.607,0.443-8.896,1.33c-2.288,0.886-4.06,2.08-5.316,3.58c-1.255,1.502-2.129,3.163-2.621,4.984h-10.409
				c0.246-3.101,1.071-5.857,2.473-8.269c1.403-2.411,3.297-4.453,5.685-6.127c2.386-1.673,5.229-2.916,8.527-3.728
				c3.297-0.813,6.988-1.219,11.074-1.219c5.118,0,9.806,0.825,14.064,2.473c4.257,1.649,7.653,4.319,10.188,8.01
				c2.535,3.692,3.802,8.564,3.802,14.618v53.376h-10.335v-10.705h-0.517c-1.231,2.019-2.868,3.95-4.91,5.796
				c-2.043,1.845-4.54,3.336-7.493,4.467c-2.953,1.131-6.423,1.698-10.41,1.698
				C1372.163,2005.739,1366.085,2003.587,1361.411,1999.279z M1392.492,1993.89c3.051-1.599,5.474-3.776,7.272-6.533
				c1.796-2.756,2.695-5.881,2.695-9.377v-9.302h-20.967c-5.71,0-9.808,1.255-12.292,3.765c-2.486,2.51-3.728,5.661-3.728,9.45
				c0,4.873,1.685,8.491,5.057,10.853c3.371,2.362,7.272,3.543,11.702,3.543C1386.019,1996.289,1389.439,1995.49,1392.492,1993.89z"
				/>
			<path style="fill:#FFFFFF;" d="M1444.096,1907.918h10.631v19.343h18.161v8.859h-18.161v47.914c0,4.823,0.934,8.036,2.805,9.635
				c1.87,1.6,5.29,2.399,10.262,2.399c0.935,0,2.055-0.049,3.359-0.148c1.303-0.099,2.3-0.196,2.99-0.295v9.007
				c-0.59,0.098-1.92,0.221-3.987,0.369c-2.067,0.148-3.717,0.221-4.946,0.221c-5.906,0-10.373-0.775-13.4-2.325
				c-3.027-1.549-5.082-3.936-6.164-7.161c-1.083-3.222-1.625-7.296-1.625-12.218v-47.397h-12.255v-8.859h12.329V1907.918z"/>
			<path style="fill:#FFFFFF;" d="M1496.809,1897.435c1.575-1.574,3.47-2.362,5.685-2.362c2.46,0,4.466,0.775,6.017,2.325
				s2.325,3.507,2.325,5.87c0,2.362-0.788,4.319-2.362,5.869c-1.576,1.551-3.569,2.327-5.98,2.327c-2.215,0-4.11-0.776-5.685-2.327
				c-1.576-1.55-2.362-3.506-2.362-5.869C1494.446,1900.954,1495.233,1899.01,1496.809,1897.435z M1497.326,1927.188h10.705v77.297
				h-10.705V1927.188z"/>
			<path style="fill:#FFFFFF;" d="M1582.633,1929.882c4.897,2.634,8.785,6.46,11.665,11.48c2.879,5.021,4.319,11.123,4.319,18.309
				V1972c0,7.187-1.44,13.289-4.319,18.309c-2.879,5.02-6.768,8.848-11.665,11.48c-4.898,2.633-10.422,3.949-16.574,3.949
				c-6.251,0-11.838-1.303-16.759-3.912c-4.922-2.609-8.798-6.423-11.628-11.443c-2.831-5.021-4.245-11.148-4.245-18.383v-12.255
				c0-6.988,1.414-13.005,4.245-18.051c2.829-5.044,6.718-8.933,11.665-11.664c4.946-2.732,10.52-4.098,16.722-4.098
				C1572.21,1925.932,1577.735,1927.249,1582.633,1929.882z M1554.541,1938.594c-3.298,2.092-5.858,5.046-7.678,8.859
				c-1.821,3.816-2.731,8.306-2.731,13.474v9.892c0,5.268,0.873,9.795,2.621,13.585c1.746,3.791,4.269,6.718,7.567,8.786
				c3.297,2.066,7.235,3.1,11.813,3.1c4.527,0,8.416-1.02,11.665-3.063c3.248-2.042,5.759-4.972,7.53-8.786
				c1.772-3.813,2.658-8.354,2.658-13.622v-9.892c0-5.168-0.911-9.646-2.731-13.437c-1.821-3.789-4.369-6.742-7.641-8.859
				c-3.274-2.116-7.1-3.175-11.48-3.175C1561.702,1935.455,1557.838,1936.502,1554.541,1938.594z"/>
			<path style="fill:#FFFFFF;" d="M1622.167,1927.188h10.631v14.396h0.591c0.688-2.166,1.857-4.455,3.507-6.866
				c1.649-2.411,4.098-4.467,7.346-6.165c3.249-1.699,7.555-2.547,12.92-2.547c7.826,0,14.175,2.129,19.048,6.386
				c4.872,4.257,7.309,10.693,7.309,19.305v52.787h-10.557v-49.391c0-4.134-0.714-7.665-2.141-10.593
				c-1.428-2.929-3.482-5.18-6.164-6.755c-2.683-1.575-5.968-2.362-9.856-2.362c-4.971,0-9.081,1.157-12.329,3.469
				c-3.249,2.314-5.673,5.402-7.272,9.266c-1.6,3.865-2.399,8.133-2.399,12.809v43.558h-10.631V1927.188z"/>
		</g>
	</g>
	<g id="contact_us">
		<path style="fill:#FFFFFF;" d="M794.329,974.8c0,15.661,2.173,28.962,6.525,39.897c4.349,10.94,10.72,19.236,19.109,24.89
			c8.39,5.657,18.487,8.483,30.297,8.483c9.695,0,18.207-1.894,25.542-5.687c7.332-3.79,13.112-9.042,17.339-15.754
			c4.224-6.712,6.712-14.418,7.458-23.119h48.661c0,0.746,0,1.556,0,2.424c0,0.871,0,1.678,0,2.424
			c-0.871,16.16-5.657,30.422-14.356,42.788c-8.702,12.369-20.387,22.032-35.051,28.991c-14.667,6.959-31.321,10.44-49.965,10.44
			c-22.871,0-42.26-4.631-58.168-13.89c-15.912-9.258-27.998-22.526-36.263-39.804c-8.267-17.276-12.398-37.97-12.398-62.085
			v-31.694c0-24.112,4.163-44.867,12.491-62.27c8.325-17.401,20.476-30.824,36.449-40.271c15.969-9.444,35.266-14.169,57.889-14.169
			c13.919,0,26.815,2.022,38.686,6.06c11.868,4.041,22.215,9.852,31.041,17.431c8.825,7.583,15.815,16.532,20.975,26.848
			c5.156,10.318,8.046,21.813,8.67,34.491c0,0.746,0,1.523,0,2.33c0,0.81,0,1.585,0,2.331h-48.661
			c-0.746-9.071-3.262-17.152-7.55-24.237c-4.288-7.085-10.1-12.646-17.432-16.687c-7.335-4.038-15.786-6.06-25.355-6.06
			c-11.684,0-21.72,2.922-30.11,8.763c-8.39,5.845-14.793,14.295-19.203,25.356c-4.413,11.064-6.618,24.487-6.618,40.27V974.8z"/>
		<path style="fill:#FFFFFF;" d="M1196.29,1036.791c-8.701,17.339-21.161,30.64-37.381,39.898
			c-16.22,9.259-35.703,13.89-58.448,13.89c-22.623,0-42.106-4.631-58.448-13.89c-16.345-9.258-28.869-22.559-37.568-39.898
			c-8.701-17.339-13.051-37.94-13.051-61.804V942.36c0-24.112,4.349-44.839,13.051-62.177c8.698-17.339,21.222-30.637,37.568-39.897
			c16.342-9.258,35.826-13.89,58.448-13.89c22.745,0,42.229,4.661,58.448,13.983c16.22,9.322,28.68,22.653,37.381,39.991
			c8.698,17.339,13.051,38.005,13.051,61.991v32.626C1209.34,998.851,1204.988,1019.452,1196.29,1036.791z M1150.798,901.064
			c-4.973-10.875-11.81-19.046-20.508-24.517c-8.701-5.468-18.644-8.203-29.83-8.203c-11.311,0-21.286,2.735-29.924,8.203
			c-8.64,5.471-15.445,13.643-20.414,24.517c-4.973,10.877-7.458,24.517-7.458,40.923v33.186c0,16.284,2.485,29.894,7.458,40.831
			c4.97,10.939,11.774,19.109,20.414,24.516c8.637,5.407,18.612,8.11,29.924,8.11c11.186,0,21.129-2.704,29.83-8.11
			c8.698-5.407,15.536-13.577,20.508-24.516c4.97-10.937,7.458-24.547,7.458-40.831v-33.186
			C1158.255,925.581,1155.768,911.941,1150.798,901.064z"/>
		<path style="fill:#FFFFFF;" d="M1262.848,1085.731V831.243h42.136l111.489,169.286h2.051V831.243h47.729v254.488h-41.763
			l-112.049-170.218h-2.051v170.218H1262.848z"/>
		<path style="fill:#FFFFFF;" d="M1578.115,1085.731V873.378h-72.152v-42.135h195.014v42.135h-72.338v212.353H1578.115z"/>
		<path style="fill:#FFFFFF;" d="M1701.163,1085.731l85.389-254.488h58.914l85.016,254.488h-53.508l-19.949-65.439h-85.015
			l-19.95,65.439H1701.163z M1813.586,879.904l-31.135,102.913h64.507l-31.135-102.913H1813.586z"/>
		<path style="fill:#FFFFFF;" d="M2003.753,974.8c0,15.661,2.173,28.962,6.525,39.897c4.349,10.94,10.72,19.236,19.109,24.89
			c8.39,5.657,18.487,8.483,30.296,8.483c9.695,0,18.207-1.894,25.542-5.687c7.332-3.79,13.112-9.042,17.339-15.754
			c4.224-6.712,6.712-14.418,7.457-23.119h48.661c0,0.746,0,1.556,0,2.424c0,0.871,0,1.678,0,2.424
			c-0.871,16.16-5.657,30.422-14.356,42.788c-8.702,12.369-20.387,22.032-35.051,28.991c-14.667,6.959-31.322,10.44-49.965,10.44
			c-22.871,0-42.26-4.631-58.168-13.89c-15.912-9.258-27.998-22.526-36.262-39.804c-8.267-17.276-12.399-37.97-12.399-62.085
			v-31.694c0-24.112,4.163-44.867,12.491-62.27c8.325-17.401,20.476-30.824,36.449-40.271c15.969-9.444,35.266-14.169,57.889-14.169
			c13.919,0,26.815,2.022,38.686,6.06c11.868,4.041,22.215,9.852,31.041,17.431c8.825,7.583,15.816,16.532,20.975,26.848
			c5.156,10.318,8.046,21.813,8.67,34.491c0,0.746,0,1.523,0,2.33c0,0.81,0,1.585,0,2.331h-48.661
			c-0.746-9.071-3.262-17.152-7.55-24.237s-10.1-12.646-17.432-16.687c-7.335-4.038-15.786-6.06-25.355-6.06
			c-11.684,0-21.72,2.922-30.11,8.763c-8.39,5.845-14.793,14.295-19.203,25.356c-4.413,11.064-6.618,24.487-6.618,40.27V974.8z"/>
		<path style="fill:#FFFFFF;" d="M2259.174,1085.731V873.378h-72.152v-42.135h195.014v42.135h-72.338v212.353H2259.174z"/>
		<path style="fill:#FFFFFF;" d="M2644.169,1033.529c9.569-9.444,14.355-22.933,14.355-40.458V831.243h50.525v166.675
			c0,18.521-4.226,34.771-12.678,48.754c-8.454,13.983-20.354,24.796-35.703,32.44c-15.351,7.645-33.466,11.466-54.347,11.466
			s-39.029-3.821-54.439-11.466c-15.414-7.644-27.346-18.457-35.796-32.44c-8.454-13.983-12.678-30.232-12.678-48.754V831.243
			h50.525v161.828c0,17.65,4.782,31.167,14.355,40.551c9.57,9.386,22.248,14.076,38.033,14.076
			C2621.982,1047.698,2634.596,1042.976,2644.169,1033.529z"/>
		<path style="fill:#FFFFFF;" d="M2802.825,1016.377c0.87,4.847,2.671,9.353,5.408,13.516c2.732,4.166,6.339,7.802,10.813,10.907
			c4.475,3.108,9.756,5.532,15.848,7.271c6.088,1.742,12.863,2.61,20.321,2.61c10.441,0,19.234-1.491,26.381-4.474
			c7.146-2.983,12.52-7.114,16.126-12.399c3.604-5.281,5.408-11.401,5.408-18.365c0-8.824-3.234-15.753-9.695-20.787
			c-6.465-5.034-16.284-9.104-29.457-12.212l-39.339-9.135c-13.175-2.983-24.61-7.519-34.304-13.61
			c-9.695-6.088-17.152-13.858-22.372-23.305c-5.22-9.444-7.831-20.569-7.831-33.372c0-15.535,4.037-29.085,12.118-40.644
			c8.079-11.559,19.265-20.508,33.559-26.847c14.293-6.339,30.763-9.508,49.406-9.508c19.39,0,35.952,3.234,49.687,9.695
			c13.731,6.464,24.359,15.134,31.88,26.008c7.519,10.877,11.715,22.903,12.585,36.076h-47.728
			c-1.118-6.088-3.636-11.559-7.55-16.406c-3.916-4.848-9.168-8.699-15.755-11.56c-6.59-2.858-14.42-4.288-23.491-4.288
			c-13.796,0-24.641,3.202-32.533,9.602c-7.895,6.403-11.839,14.575-11.839,24.517c0,7.708,3.044,14.047,9.136,19.017
			c6.088,4.973,14.665,8.701,25.729,11.186l39.524,9.135c13.796,3.108,25.79,7.55,35.981,13.331
			c10.19,5.779,18.146,13.394,23.864,22.838c5.718,9.447,8.578,21.318,8.578,35.609c0,15.787-3.948,29.676-11.839,41.669
			c-7.895,11.996-19.328,21.347-34.304,28.059c-14.98,6.712-33.219,10.068-54.72,10.068c-16.16,0-30.268-1.928-42.322-5.78
			c-12.058-3.851-22.157-9.229-30.295-16.127c-8.142-6.898-14.327-14.821-18.551-23.77c-4.228-8.949-6.59-18.457-7.085-28.525
			H2802.825z"/>
	</g>
</g>
</svg>
