<svg xmlns="http://www.w3.org/2000/svg" version="1.1" xmlns:xlink="http://www.w3.org/1999/xlink" xmlns:svgjs="http://svgjs.dev/svgjs" width="2000" height="435" viewBox="0 0 2000 435"><g transform="matrix(1,0,0,1,-0.9561289438137237,-1.3515496504934674)"><svg viewBox="0 0 262 57" data-background-color="#b10dc9" preserveAspectRatio="xMidYMid meet" height="435" width="2000" xmlns="http://www.w3.org/2000/svg" xmlns:xlink="http://www.w3.org/1999/xlink"><g id="tight-bounds" transform="matrix(1,0,0,1,0.1252528916396045,0.17709960937500568)"><svg viewBox="0 0 261.7494942167208 56.645800781249996" height="56.645800781249996" width="261.7494942167208"><g><svg viewBox="0 0 261.7494942167208 56.645800781249996" height="56.645800781249996" width="261.7494942167208"><g><svg viewBox="0 0 261.7494942167208 56.645800781249996" height="56.645800781249996" width="261.7494942167208"><g id="textblocktransform"><svg viewBox="0 0 261.7494942167208 56.645800781249996" height="56.645800781249996" width="261.7494942167208" id="textblock"><g><svg viewBox="0 0 261.7494942167208 56.645800781249996" height="56.645800781249996" width="261.7494942167208"><g><svg><g></g><g></g></svg></g><g><svg><g><svg></svg></g><g></g></svg></g><g id="text-0"><svg viewBox="0 0 261.7494942167208 56.645800781249996" height="56.645800781249996" width="261.7494942167208"><g transform="matrix(1,0,0,1,0,0)"><svg width="184.0791015625" viewBox="3.64 -35.01 113.76 35.01" height="56.645800781249996" data-palette-color="#ffffff"><path d="M38.62-20.36L38.62-14.65Q38.62-11.45 37.51-8.76 36.4-6.08 34.45-4.14 32.5-2.2 29.81-1.1 27.12 0 23.97 0L23.97 0 6.84 0Q6.15 0 5.57-0.24 4.98-0.49 4.55-0.92 4.13-1.34 3.88-1.93 3.64-2.51 3.64-3.2L3.64-3.2 3.64-31.81Q3.64-32.47 3.88-33.06 4.13-33.64 4.55-34.08 4.98-34.52 5.57-34.77 6.15-35.01 6.84-35.01L6.84-35.01 23.97-35.01Q27.12-35.01 29.81-33.91 32.5-32.81 34.45-30.87 36.4-28.93 37.51-26.23 38.62-23.54 38.62-20.36L38.62-20.36ZM32.28-14.65L32.28-20.36Q32.28-22.22 31.68-23.75 31.08-25.29 29.98-26.38 28.88-27.47 27.36-28.06 25.83-28.66 23.97-28.66L23.97-28.66 9.99-28.66 9.99-6.35 23.97-6.35Q25.83-6.35 27.36-6.95 28.88-7.54 29.98-8.63 31.08-9.72 31.68-11.24 32.28-12.77 32.28-14.65L32.28-14.65ZM78.49-10.3L78.49-10.3Q78.49-8.42 78.01-6.92 77.54-5.42 76.76-4.27 75.97-3.13 74.92-2.32 73.87-1.51 72.75-1 71.63-0.49 70.47-0.24 69.31 0 68.28 0L68.28 0 43.8 0 43.8-6.35 68.28-6.35Q70.11-6.35 71.13-7.42 72.14-8.5 72.14-10.3L72.14-10.3Q72.14-11.18 71.87-11.91 71.6-12.65 71.1-13.18 70.6-13.72 69.88-14.01 69.16-14.31 68.28-14.31L68.28-14.31 53.68-14.31Q52.15-14.31 50.36-14.86 48.58-15.41 47.06-16.63 45.53-17.85 44.52-19.82 43.5-21.8 43.5-24.66L43.5-24.66Q43.5-27.51 44.52-29.48 45.53-31.45 47.06-32.68 48.58-33.91 50.36-34.46 52.15-35.01 53.68-35.01L53.68-35.01 75.29-35.01 75.29-28.66 53.68-28.66Q51.88-28.66 50.86-27.56 49.85-26.46 49.85-24.66L49.85-24.66Q49.85-22.83 50.86-21.77 51.88-20.7 53.68-20.7L53.68-20.7 68.28-20.7 68.33-20.7Q69.36-20.68 70.51-20.42 71.65-20.17 72.79-19.63 73.92-19.09 74.95-18.27 75.97-17.46 76.77-16.31 77.56-15.16 78.02-13.67 78.49-12.18 78.49-10.3ZM117.4-10.3L117.4-10.3Q117.4-8.42 116.93-6.92 116.45-5.42 115.67-4.27 114.89-3.13 113.84-2.32 112.79-1.51 111.66-1 110.54-0.49 109.38-0.24 108.22 0 107.2 0L107.2 0 82.71 0 82.71-6.35 107.2-6.35Q109.03-6.35 110.04-7.42 111.05-8.5 111.05-10.3L111.05-10.3Q111.05-11.18 110.79-11.91 110.52-12.65 110.02-13.18 109.52-13.72 108.8-14.01 108.08-14.31 107.2-14.31L107.2-14.31 92.6-14.31Q91.06-14.31 89.28-14.86 87.5-15.41 85.97-16.63 84.44-17.85 83.43-19.82 82.42-21.8 82.42-24.66L82.42-24.66Q82.42-27.51 83.43-29.48 84.44-31.45 85.97-32.68 87.5-33.91 89.28-34.46 91.06-35.01 92.6-35.01L92.6-35.01 114.2-35.01 114.2-28.66 92.6-28.66Q90.79-28.66 89.78-27.56 88.76-26.46 88.76-24.66L88.76-24.66Q88.76-22.83 89.78-21.77 90.79-20.7 92.6-20.7L92.6-20.7 107.2-20.7 107.25-20.7Q108.27-20.68 109.42-20.42 110.57-20.17 111.7-19.63 112.84-19.09 113.86-18.27 114.89-17.46 115.68-16.31 116.47-15.16 116.94-13.67 117.4-12.18 117.4-10.3Z" opacity="1" transform="matrix(1,0,0,1,0,0)" fill="#ffffff" class="wordmark-text-0" data-fill-palette-color="primary"></path></svg></g><g><svg xmlns="http://www.w3.org/2000/svg" xmlns:xlink="http://www.w3.org/1999/xlink" version="1.1" x="197.45283203125" y="0" viewBox="6.3 11.5 87.4 77" style="enable-background:new 0 0 100 100;" xml:space="preserve" height="56.645800781249996" width="64.29666218547078" class="icon-z$-0" data-fill-palette-color="accent" id="z$-0"><path d="M72.3 12.3L72.3 12.3 72.3 12.3l-0.4-0.8H28.2L6.3 50l21.8 38.5h43.7L93.7 50 72.3 12.3zM33.3 25.3L9.9 47.7l18.6-32.8L33.3 25.3zM70.7 14.8l6.4 35.7L36.9 25.8 70.7 14.8zM35.5 27.3l41 25.2-41 23.3V27.3zM77 54.5l-7.2 30.8-32.6-8.1L77 54.5zM33.5 75L9.9 50.5l23.6-22.7V75zM33.2 77.6l-4.6 7.7L11.5 55.1 33.2 77.6zM35 78.6l31.4 7.9H30.2L35 78.6zM79.3 53.3l11.6-2.5L72.1 84 79.3 53.3zM90.7 48.9l-11.4 2.5-5.9-33.1L90.7 48.9zM35 24.3l-5-10.8h38.2L35 24.3z" fill="#ffffff" data-fill-palette-color="accent"></path></svg></g></svg></g></svg></g></svg></g></svg></g><g></g></svg></g><defs></defs></svg><rect width="261.7494942167208" height="56.645800781249996" fill="none" stroke="none" visibility="hidden"></rect></g></svg></g></svg>